# StreamSim procedural low-poly poplar, Y-up, metres
o poplar_trunk
v -0.18 0.0 -0.18
v  0.18 0.0 -0.18
v  0.18 6.0 -0.18
v -0.18 6.0 -0.18
v -0.18 0.0  0.18
v  0.18 0.0  0.18
v  0.18 6.0  0.18
v -0.18 6.0  0.18
f 1 2 3
f 1 3 4
f 5 8 7
f 5 7 6
f 1 5 6
f 1 6 2
f 4 3 7
f 4 7 8
f 1 4 8
f 1 8 5
f 2 6 7
f 2 7 3
o poplar_crown
v  0.0 12.0  0.0
v  0.0  4.0  0.0
v  1.8  7.8  0.0
v -1.8  7.8  0.0
v  0.0  7.8  1.8
v  0.0  7.8 -1.8
f 9 11 13
f 9 13 12
f 9 12 14
f 9 14 11
f 10 13 11
f 10 12 13
f 10 14 12
f 10 11 14
