# StreamSim procedural low-poly cypress, Y-up, metres
o cypress_trunk
v -0.14 0.0 -0.14
v  0.14 0.0 -0.14
v  0.14 5.0 -0.14
v -0.14 5.0 -0.14
v -0.14 0.0  0.14
v  0.14 0.0  0.14
v  0.14 5.0  0.14
v -0.14 5.0  0.14
f 1 2 3
f 1 3 4
f 5 8 7
f 5 7 6
f 1 5 6
f 1 6 2
f 4 3 7
f 4 7 8
f 1 4 8
f 1 8 5
f 2 6 7
f 2 7 3
o cypress_crown
v -1.6 2.2 -1.6
v  1.6 2.2 -1.6
v  1.6 2.2  1.6
v -1.6 2.2  1.6
v  0.0 7.0  0.0
f 9 10 13
f 10 11 13
f 11 12 13
f 12 9 13
f 9 12 11
f 9 11 10
v -1.15 5.0 -1.15
v  1.15 5.0 -1.15
v  1.15 5.0  1.15
v -1.15 5.0  1.15
v  0.0 9.2  0.0
f 14 15 18
f 15 16 18
f 16 17 18
f 17 14 18
f 14 17 16
f 14 16 15
v -0.68 7.7 -0.68
v  0.68 7.7 -0.68
v  0.68 7.7  0.68
v -0.68 7.7  0.68
v  0.0 11.0  0.0
f 19 20 23
f 20 21 23
f 21 22 23
f 22 19 23
f 19 22 21
f 19 21 20
