# StreamSim low-poly 2 x 4 ground-mounted PV array
# Y-up; array rises northward (+X), so its front faces south/up
o solar_panel_ground_array
g pv_modules
v -1.10 0.75 -4.60
v -1.10 0.75 4.60
v 1.10 2.02 4.60
v 1.10 2.02 -4.60
v -1.10 0.79 -4.60
v -1.10 0.79 4.60
v 1.10 2.06 4.60
v 1.10 2.06 -4.60
f 5 6 7 8
f 4 3 2 1
f 1 2 6 5
f 2 3 7 6
f 3 4 8 7
f 4 1 5 8
g pv_supports
v 0.45 0 -3.65
v 0.55 0 -3.65
v 0.55 1.70 -3.65
v 0.45 1.70 -3.65
v 0.45 0 -3.55
v 0.55 0 -3.55
v 0.55 1.70 -3.55
v 0.45 1.70 -3.55
f 9 10 11 12
f 13 16 15 14
f 9 13 14 10
f 10 14 15 11
f 11 15 16 12
f 12 16 13 9
v 0.45 0 -1.25
v 0.55 0 -1.25
v 0.55 1.70 -1.25
v 0.45 1.70 -1.25
v 0.45 0 -1.15
v 0.55 0 -1.15
v 0.55 1.70 -1.15
v 0.45 1.70 -1.15
f 17 18 19 20
f 21 24 23 22
f 17 21 22 18
f 18 22 23 19
f 19 23 24 20
f 20 24 21 17
v 0.45 0 1.15
v 0.55 0 1.15
v 0.55 1.70 1.15
v 0.45 1.70 1.15
v 0.45 0 1.25
v 0.55 0 1.25
v 0.55 1.70 1.25
v 0.45 1.70 1.25
f 25 26 27 28
f 29 32 31 30
f 25 29 30 26
f 26 30 31 27
f 27 31 32 28
f 28 32 29 25
v 0.45 0 3.55
v 0.55 0 3.55
v 0.55 1.70 3.55
v 0.45 1.70 3.55
v 0.45 0 3.65
v 0.55 0 3.65
v 0.55 1.70 3.65
v 0.45 1.70 3.65
f 33 34 35 36
f 37 40 39 38
f 33 37 38 34
f 34 38 39 35
f 35 39 40 36
f 36 40 37 33
