# StreamSim low-poly single monocrystalline PV module
# Y-up; module rises northward (+X), so its front faces south/up
o solar_panel_single_tilted
g pv_module
v -0.55 0.62 -1.15
v -0.55 0.62 1.15
v 0.55 1.255 1.15
v 0.55 1.255 -1.15
v -0.55 0.66 -1.15
v -0.55 0.66 1.15
v 0.55 1.295 1.15
v 0.55 1.295 -1.15
f 5 6 7 8
f 4 3 2 1
f 1 2 6 5
f 2 3 7 6
f 3 4 8 7
f 4 1 5 8
g pv_support
v 0.15 0 -0.80
v 0.25 0 -0.80
v 0.25 0.95 -0.80
v 0.15 0.95 -0.80
v 0.15 0 -0.70
v 0.25 0 -0.70
v 0.25 0.95 -0.70
v 0.15 0.95 -0.70
f 9 10 11 12
f 13 16 15 14
f 9 13 14 10
f 10 14 15 11
f 11 15 16 12
f 12 16 13 9
v 0.15 0 0.70
v 0.25 0 0.70
v 0.25 0.95 0.70
v 0.15 0.95 0.70
v 0.15 0 0.80
v 0.25 0 0.80
v 0.25 0.95 0.80
v 0.15 0.95 0.80
f 17 18 19 20
f 21 24 23 22
f 17 21 22 18
f 18 22 23 19
f 19 23 24 20
f 20 24 21 17
