# StreamSim white model library
# Source: Kenney.nl, CC0 1.0
# Coordinate system: Y-up, unit: metre
g tree_default
v 0.1378048 2.5118079 0.2435449
v -0.1315339 2.5118079 0.2435449
v 0.101444 2.5606401 0.6403609
v -0.0951732 2.5606401 0.6403609
v 0.2219867 3.1986917 -0.0950289
v 0.5723226 3.2352866 -0.0694417
v 0.215007 3.4210788 -0.0950289
v 0.566948 3.4065251 -0.0694417
v 0.566948 3.4065251 0.1018811
v 0.215007 3.4210788 0.1274683
v 0.1545258 0.9019421 -0.2940713
v 0.1120171 0.9550829 -0.6321716
v -0.1031025 0.9019421 -0.2940713
v -0.0605938 0.9550829 -0.6321716
v -0.1315339 2.781014 0.2350958
v -0.0951732 2.7571613 0.6341932
v 0.3223792 0 -0.3223792
v -0.3223792 0 -0.3223792
v -0.2047108 3.7491356 -0.2047108
v -0.1031025 1.159443 -0.2859895
v 0.1545258 1.159443 -0.2859895
v 0.2047108 3.7491356 -0.2047108
v 0.1120171 1.127609 -0.6267567
v 0.5723226 3.2352866 0.1018811
v -0.2801865 1.3443405 0.1688357
v -0.6766883 1.4031809 0.1224626
v -0.2713699 1.6252513 0.1688357
v -0.6707816 1.591391 0.1224626
v -0.2801865 1.3443405 -0.1122134
v -0.3223792 0 0.3223792
v -0.2047108 3.7491356 0.2047108
v -0.2713699 1.6252513 -0.1122134
v 0.2219867 3.1986917 0.1274683
v -0.0605938 1.127609 -0.6267567
v 0.3223792 0 0.3223792
v 0.1378048 2.781014 0.2350958
v 0.101444 2.7571613 0.6341932
v 0.2047108 3.7491356 0.2047108
v -0.6766883 1.4031809 -0.0658403
v -0.6707816 1.591391 -0.0658403
v -1.3792482 3.7491356 0
v -1.7682669 4.475179 0
v -0.6896241 3.7491356 1.194464
v -0.8841334 4.475179 1.5313636
v 1.7682669 4.475179 0
v 1.3792482 3.7491356 0
v 0.8841334 4.475179 1.5313636
v 0.6896241 3.7491356 1.194464
v 0.6896241 3.7491356 -1.194464
v -0.6896241 3.7491356 -1.194464
v 0 8 0
v 0.6807827 7.0280387 1.1791506
v -0.6807827 7.0280387 1.1791506
v 0.8841334 4.475179 -1.5313636
v -0.8841334 4.475179 -1.5313636
v -0.6807827 7.0280387 -1.1791506
v -1.3615655 7.0280387 0
v 0.6807827 7.0280387 -1.1791506
v 1.3615655 7.0280387 0
vn 0 -0.9925131 0.1221388
vn 0.0726052 0.0022788 -0.9973581
vn 0.0413175 0.9991461 0
vn 0 -0.9878722 -0.1552692
vn -0.9958559 0.0028529 0.0909002
vn 0 0.03137 -0.9995079
vn 0.9922568 0.0038962 -0.1241421
vn 0.9995079 0.0313705 0
vn -0.1156316 0.0036291 0.9932855
vn -0.9995079 0.03137 0
vn 0.1038915 -0.9945886 0
vn -0.9922568 0.0038962 -0.124142
vn 0 -1 0
vn 0.0726051 0.0022788 0.9973581
vn 0.9958559 0.0028529 0.0909004
vn 0 0.03137 0.9995079
vn 0 0.9982187 0.0596604
vn 0 0.9956648 -0.0930144
vn 0.9995079 0.03137 0
vn 0 0.0313698 0.9995079
vn 0 0.0313697 -0.9995079
vn -0.1467902 -0.9891676 0
vn -0.1156316 0.0036291 -0.9932855
vn -0.0844732 0.9964257 0
vn -0.9995079 0.0313701 0
vn -0.785572 -0.4209143 0.4535502
vn 0.785572 -0.4209143 0.4535502
vn 0 0.7716424 0.6360566
vn 0.785572 -0.4209143 -0.4535502
vn -0.8578987 0.1366735 -0.4953081
vn 0.8578987 0.1366735 -0.4953081
vn 0.8578987 0.1366735 0.4953081
vn 0.5508413 0.7716423 0.3180283
vn 0 0.1366732 0.9906161
vn 0 -0.4209136 -0.9071007
vn -0.785572 -0.4209143 -0.4535502
vn 0 -0.4209136 0.9071007
vn -0.8578987 0.1366735 0.4953081
vn -0.5508413 0.7716423 -0.3180283
vn 0 0.1366732 -0.9906161
vn 0 0.7716424 -0.6360566
vn 0.5508413 0.7716423 -0.3180283
vn -0.5508413 0.7716423 0.3180283
vt 1.158243 4.610208
vt -1.105536 4.610208
vt 0.8526326 7.970589
vt -0.7999265 7.970589
vt -1.802873 26.88267
vt -4.755273 27.19025
vt -1.744364 28.75183
vt -4.71022 28.6295
vt 0.5836543 -3.578113
vt -0.8563063 -3.578113
vt 0.7987134 -0.6175358
vt -1.071365 -0.6175358
vt -1.298782 3.618743
vt -0.9414989 6.495347
vt 0.8665719 3.618743
vt 0.5092885 6.495347
vt 1.867295 23.37055
vt 5.235584 23.17007
vt 1.938016 21.10788
vt 5.28721 21.51831
vt -2.709583 -0.08499963
vt 0.8665719 7.499515
vt 2.709583 -0.08499963
vt 1.720586 31.44184
vt 0.8665719 9.664867
vt -1.298782 9.664867
vt -1.298782 7.499515
vt -1.720586 31.44184
vt 5.155391 8.021159
vt 2.291302 7.574507
vt 5.110232 9.471243
vt 2.2239 9.738811
vt 0.5836543 28.46811
vt 0.5836543 27.02815
vt -0.8563063 28.46811
vt -0.8563063 27.02815
vt -2.175069 11.29295
vt -5.530366 11.7875
vt -2.101464 13.65401
vt -5.481051 13.36941
vt -0.9431484 11.21969
vt -2.709583 -0.08499962
vt 2.709583 -0.08499962
vt 1.419056 11.21969
vt 1.419056 13.58189
vt -0.9431484 13.58189
vt -0.8563063 7.609377
vt 0.5836543 7.609377
vt -1.071365 4.648799
vt 0.7987134 4.648799
vt -5.209047 8.02283
vt -5.163888 9.472914
vt -2.344958 7.576178
vt -2.277556 9.740481
vt 2.709583 2.709583
vt 2.709583 -2.709583
vt -2.709583 2.709583
vt -2.709583 -2.709583
vt 1.783077 26.88205
vt 1.724568 28.75121
vt 4.735477 27.18963
vt 4.690424 28.62888
vt -1.862504 23.3704
vt -1.933224 21.10773
vt -5.230793 23.16992
vt -5.282419 21.51816
vt 1.158243 21.03703
vt 1.158243 23.30081
vt -1.105536 23.30081
vt -1.105536 21.03703
vt 1.158243 -0.5779288
vt 0.8526326 -3.938311
vt -1.105536 -0.5779288
vt -0.7999265 -3.938311
vt -1.298782 -1.486877
vt 0.8665719 -1.486877
vt -0.9414989 -4.363482
vt 0.5092885 -4.363482
vt 1.720586 31.44184
vt 0.7987134 28.68318
vt -1.720585 31.44184
vt -1.071365 28.68318
vt -1.071365 26.8131
vt 0.7987134 26.8131
vt -2.709582 -0.08499966
vt 2.709583 -0.08499965
vt 0.8526326 21.34264
vt -0.7999265 21.34264
vt 0.8526326 22.9952
vt -0.7999265 22.9952
vt 0.5092885 7.8568
vt -0.9414989 7.8568
vt 0.5092885 9.307588
vt -0.9414989 9.307588
vt 1.419056 3.988046
vt -0.9431484 3.988046
vt 1.029292 7.357124
vt -0.5533847 7.357124
vt 2.230099 11.29466
vt 2.156494 13.65572
vt 5.585397 11.78921
vt 5.536081 13.37112
vt -0.9431484 -1.118783
vt 1.419056 -1.118783
vt -0.5533847 -4.487861
vt 1.029292 -4.487861
vt -0.5533847 11.60945
vt -0.5533847 13.19213
vt 1.029292 11.60945
vt 1.029292 13.19213
vt -5.79626 32.80966
vt -7.431103 39.53699
vt 5.796262 32.80967
vt 7.431098 39.53699
vt 7.431103 39.53699
vt 5.79626 32.80966
vt -7.431098 39.53699
vt -5.796262 32.80967
vt 11.59252 0
vt 5.79626 -10.03942
vt 5.79626 10.03942
vt 1.720586 1.720586
vt -5.79626 10.03942
vt -1.720586 1.720586
vt -1.720586 -1.720586
vt 1.720586 -1.720586
vt -5.79626 -10.03942
vt -11.59252 0
vt 0 42.76823
vt 5.721948 29.92458
vt -5.721948 29.92458
vt -7.431098 35.50159
vt -5.721951 57.16153
vt 7.431104 35.50159
vt 5.72195 57.16154
vt 7.431098 35.50159
vt -7.431104 35.50159
vt 5.721951 57.16153
vt -5.72195 57.16154
vt 5.721949 29.92458
vt -5.721951 29.92458
vt -1.776357E-15 42.76823
vt 7.431103 35.50159
vt -7.431103 35.50159
vt 5.721948 57.16154
vt -5.721948 57.16154
vt 5.79626 32.80967
vt -5.79626 32.80967
vt 7.431103 39.53699
vt -7.431103 39.53699
vt 0 42.76823
vt 5.721951 29.92458
vt -5.721949 29.92458
vt 1.776357E-15 42.76823
f 3/3/1 2/2/1 1/1/1
f 2/2/1 3/3/1 4/4/1
f 7/7/2 6/6/2 5/5/2
f 6/6/2 7/7/2 8/8/2
f 7/11/3 9/10/3 8/9/3
f 9/10/3 7/11/3 10/12/3
f 13/15/4 12/14/4 11/13/4
f 12/14/4 13/15/4 14/16/4
f 2/19/5 16/18/5 15/17/5
f 16/18/5 2/19/5 4/20/5
f 18/23/6 13/22/6 17/21/6
f 13/22/6 18/23/6 19/24/6
f 13/22/6 19/24/6 20/25/6
f 20/25/6 19/24/6 21/26/6
f 11/27/6 17/21/6 13/22/6
f 17/21/6 11/27/6 22/28/6
f 22/28/6 11/27/6 21/26/6
f 22/28/6 21/26/6 19/24/6
f 23/31/7 11/30/7 12/29/7
f 11/30/7 23/31/7 21/32/7
f 9/35/8 6/34/8 8/33/8
f 6/34/8 9/35/8 24/36/8
f 27/39/9 26/38/9 25/37/9
f 26/38/9 27/39/9 28/40/9
f 18/42/10 29/41/10 19/28/10
f 29/41/10 18/42/10 30/43/10
f 29/41/10 30/43/10 25/44/10
f 25/44/10 30/43/10 27/45/10
f 27/45/10 30/43/10 31/24/10
f 19/28/10 32/46/10 31/24/10
f 32/46/10 19/28/10 29/41/10
f 31/24/10 32/46/10 27/45/10
f 33/49/11 6/48/11 24/47/11
f 6/48/11 33/49/11 5/50/11
f 13/53/12 34/52/12 14/51/12
f 34/52/12 13/53/12 20/54/12
f 30/57/13 17/56/13 35/55/13
f 17/56/13 30/57/13 18/58/13
f 24/61/14 10/60/14 33/59/14
f 10/60/14 24/61/14 9/62/14
f 37/65/15 1/64/15 36/63/15
f 1/64/15 37/65/15 3/66/15
f 35/43/16 1/67/16 30/42/16
f 1/67/16 35/43/16 38/24/16
f 1/67/16 38/24/16 36/68/16
f 36/68/16 38/24/16 15/69/16
f 2/70/16 30/42/16 1/67/16
f 30/42/16 2/70/16 31/28/16
f 31/28/16 2/70/16 15/69/16
f 31/28/16 15/69/16 38/24/16
f 15/73/17 37/72/17 36/71/17
f 37/72/17 15/73/17 16/74/17
f 23/77/18 20/76/18 21/75/18
f 20/76/18 23/77/18 34/78/18
f 38/81/19 7/80/19 22/79/19
f 7/80/19 38/81/19 10/82/19
f 10/82/19 38/81/19 33/83/19
f 5/84/19 22/79/19 7/80/19
f 35/85/19 22/79/19 5/84/19
f 35/85/19 5/84/19 33/83/19
f 35/85/19 33/83/19 38/81/19
f 22/79/19 35/85/19 17/86/19
f 37/89/20 4/88/20 3/87/20
f 4/88/20 37/89/20 16/90/20
f 34/93/21 12/92/21 14/91/21
f 12/92/21 34/93/21 23/94/21
f 26/97/22 29/96/22 25/95/22
f 29/96/22 26/97/22 39/98/22
f 39/101/23 32/100/23 29/99/23
f 32/100/23 39/101/23 40/102/23
f 40/105/24 27/104/24 32/103/24
f 27/104/24 40/105/24 28/106/24
f 26/109/25 40/108/25 39/107/25
f 40/108/25 26/109/25 28/110/25
f 43/113/26 42/112/26 41/111/26
f 42/112/26 43/113/26 44/114/26
f 47/117/27 46/116/27 45/115/27
f 46/116/27 47/117/27 48/118/27
f 48/121/13 49/120/13 46/119/13
f 49/120/13 48/121/13 38/122/13
f 38/122/13 48/121/13 43/123/13
f 38/122/13 43/123/13 31/124/13
f 31/124/13 43/123/13 19/125/13
f 22/126/13 49/120/13 38/122/13
f 49/120/13 22/126/13 50/127/13
f 50/127/13 22/126/13 19/125/13
f 50/127/13 19/125/13 43/123/13
f 50/127/13 43/123/13 41/128/13
f 53/131/28 52/130/28 51/129/28
f 45/112/29 49/113/29 54/114/29
f 49/113/29 45/112/29 46/111/29
f 42/134/30 56/133/30 55/132/30
f 56/133/30 42/134/30 57/135/30
f 58/138/31 45/137/31 54/136/31
f 45/137/31 58/138/31 59/139/31
f 52/133/32 45/134/32 59/135/32
f 45/134/32 52/133/32 47/132/32
f 51/142/33 52/141/33 59/140/33
f 52/145/34 44/144/34 47/143/34
f 44/144/34 52/145/34 53/146/34
f 55/149/35 49/148/35 50/147/35
f 49/148/35 55/149/35 54/150/35
f 50/118/36 42/115/36 55/117/36
f 42/115/36 50/118/36 41/116/36
f 47/149/37 43/148/37 48/147/37
f 43/148/37 47/149/37 44/150/37
f 44/136/38 57/139/38 42/137/38
f 57/139/38 44/136/38 53/138/38
f 57/140/39 51/151/39 56/141/39
f 56/145/40 54/144/40 55/143/40
f 54/144/40 56/145/40 58/146/40
f 56/130/41 51/129/41 58/131/41
f 51/154/42 59/153/42 58/152/42
f 57/153/43 53/152/43 51/142/43
