# StreamSim white model library
# Source: Kenney.nl, CC0 1.0
# Coordinate system: Y-up, unit: metre
g tree_oak
v 1.9980743 8.1656446 -1.1535889
v 0.9990371 9 -0.5767944
v -4e-7 8.1656446 -2.3071777
v -4e-7 9 -1.1535889
v 2.3506761 5.3049974 -1.3571634
v 1.8509259 4.1130611 -1.0686326
v 2.3506761 5.3049974 1.3571634
v 1.8509259 4.1130611 1.0686326
v -4e-7 4.1130611 2.1372651
v -4e-7 5.3049974 2.7143267
v -2.3506761 5.3049974 -1.3571634
v -2.3506761 5.3049974 1.3571634
v -1.8509267 4.1130611 -1.0686326
v -1.8509267 4.1130611 1.0686326
v 0.9990371 9 0.5767944
v -4e-7 9 1.1535889
v -0.9990379 9 -0.5767944
v -0.9990379 9 0.5767944
v -1.998075 8.1656446 -1.1535889
v -1.998075 8.1656446 1.1535889
v 0.925463 3.6726905 0.5343163
v 0.925463 3.6726905 -0.5343163
v -4e-7 8.1656446 2.3071777
v -0.9254637 3.6726905 0.5343163
v -0.9254637 3.6726905 -0.5343163
v -4e-7 3.6726905 1.0686326
v -4e-7 5.3049974 -2.7143267
v 1.9980743 8.1656446 1.1535889
v -4e-7 3.6726905 -1.0686326
v -4e-7 4.1130611 -2.1372651
v 0.2958354 3.6726905 0.1708006
v -4e-7 3.6726905 0.3416021
v -0.2958362 3.6726905 0.1708006
v -0.2958362 3.6726905 -0.1708006
v 0.2958354 3.6726905 -0.1708006
v -4e-7 3.6726905 -0.3416021
v -4e-7 1.1743215 0.5086281
v -0.4404855 1.1743215 0.2543141
v 0.440484 1.1743215 -0.2543141
v 0.440484 1.1743215 0.2543141
v 0.3352272 1.5492508 -0.7144746
v 0.4477324 1.5492508 -0.6495199
v 0.3314731 1.6789429 -0.7079722
v 0.4439775 1.6789429 -0.6430174
v 0.4195399 2.3183837 0.6143772
v 0.2767541 2.2521094 0.276789
v 0.3070355 2.3183837 0.6793317
v 0.0860678 2.2521094 0.3868817
v 0.2703909 2.4719262 0.2657674
v 0.0797045 2.4719262 0.3758599
v -0.4404855 1.1743215 -0.2543141
v -4e-7 1.1743215 -0.5086281
v 0.4157858 2.448075 0.6078743
v 0.3032806 2.448075 0.672829
v 0.3049468 1.4829765 -0.3119319
v 0.2985833 1.7027933 -0.3009101
v 0.1142604 1.4829765 -0.4220246
v 0.107897 1.7027933 -0.4110028
v 0.6023181 0 -0.3477491
v 0.6023181 0 -0.1947395
v 0.5618201 0.2938674 -0.1978343
v 0.5618201 0.2938674 0.1978343
v 0.6023181 0 0.3477491
v 0.6023181 0 0.1947395
v 0.1355209 0 0.6172548
v 0.0874751 0.5982822 0.5497892
v 0.538579 0 1.1832273
v 0.7554139 0 1.0580373
v 0.4323923 0.5982822 0.3506512
v 0.4667963 0 0.4259927
v -0.4698093 0 -0.4242539
v -0.8646265 0 -1.2471977
v -0.4522405 0.2938674 -0.3876341
v -0.1095812 0.2938674 -0.5854683
v -0.6477917 0 -1.3723877
v -0.1095812 0.2938674 0.5854683
v -0.1325105 0 0.6189933
v -0.6477917 0 1.3723877
v -0.4698093 0 0.4242539
v -0.4522405 0.2938674 0.3876341
v -0.8646265 0 1.2471977
v -0.6023196 0 0.191262
v -1.2939951 0 0.1251897
v -0.5198699 0.5982821 0.199138
v -1.2939951 0 -0.1251897
v -0.6023196 0 -0.191262
v -0.5198699 0.5982821 -0.199138
v 0.4667967 0 -0.4259925
v 0.1355212 0 -0.6172546
v 0.5385794 0 -1.1832265
v 0.7554139 0 -1.0580373
v 1.5124175 0 -0.1251897
v 1.5124175 0 0.1251897
v -3e-7 0 -0.695498
v -3e-7 0 0.695498
v -0.1325105 0 -0.6189933
v -0.6023196 0 0.3477491
v -0.6023196 0 -0.3477491
v 0.4323926 0.5982822 -0.3506509
v 0.0874755 0.5982822 -0.5497891
vn 0.3205056 0.7675316 -0.555132
vn 0.9222204 -0.3866647 0
vn 0.4611101 -0.3866646 0.7986663
vn -0.9222204 -0.3866646 0
vn 0 1 0
vn -0.9924891 0.1223335 0
vn 0.4296742 -0.902984 0
vn -0.3205056 0.7675316 0.555132
vn -0.4296741 -0.902984 0
vn -0.4611101 -0.3866646 0.7986663
vn 0.2148371 -0.902984 0.3721087
vn -0.2148371 -0.902984 0.3721087
vn -0.3205056 0.7675316 -0.555132
vn -0.4962445 0.1223336 -0.8595207
vn 0.6410112 0.7675316 0
vn -0.2148371 -0.902984 -0.3721087
vn 0.9924891 0.1223336 0
vn 0.4611101 -0.3866646 -0.7986663
vn 0.4962445 0.1223336 0.8595207
vn 0.4962445 0.1223336 -0.8595207
vn -0.6410111 0.7675316 0
vn 0.3205056 0.7675316 0.555132
vn 0.2148371 -0.902984 -0.3721088
vn -0.4962445 0.1223335 0.8595207
vn -0.4611101 -0.3866646 -0.7986663
vn 0 -1 0
vn -0.4991642 0.0578006 0.8645774
vn 0.9983281 0.0578004 0
vn 0.4991642 0.057799 -0.8645775
vn 0.0896225 -0.9838045 0.1552308
vn 0.4991644 0.0578005 0.8645774
vn -0.9983281 0.0578007 0
vn -0.4991642 0.0578006 -0.8645774
vn 0.4991637 0.0578011 0.8645777
vn -0.7986091 0.007056 0.6018087
vn 0.0322538 0.9979172 0.0558654
vn 0.9204861 0.0070575 0.3907117
vn -0.7986097 0.0070563 -0.6018077
vn 0.9204857 0.0070555 -0.3907126
vn 0.0322529 0.9979174 -0.0558637
vn 0.4991644 0.0578006 -0.8645773
vn 0.0896225 -0.9838044 -0.1552309
vn 0.9906372 0.1365204 0
vn -0.8145548 0 0.5800868
vn 0.3057542 0.7912382 0.5295814
vn 0.909647 0 -0.4153822
vn -0.9016068 0 0.4325566
vn -0.1476744 0.9553894 -0.2557797
vn 0.8254089 0 0.5645353
vn -0.9016068 0 -0.4325566
vn -0.1476744 0.9553894 0.2557797
vn -0.0950922 0 0.9954685
vn -0.0950922 0 -0.9954685
vn 0.2953489 0.9553894 0
vn 0.3057542 0.7912382 -0.5295814
vn -0.8145548 0 -0.5800868
vn 0.909647 0 0.4153822
vn -0.4953183 0.1365204 -0.8579172
vn -0.9906372 0.1365204 0
vn -0.4953183 0.1365204 0.8579172
vn 0.4953188 0.1365205 -0.8579168
vn 0.4953188 0.1365205 0.8579168
vn 0.0761979 0 0.9970927
vn -0.611508 0.7912382 0
vn 0.0761979 0 -0.9970927
vn 0.8254089 0 -0.5645353
vt -6.188001 19.85095
vt -3.094002 26.83303
vt 6.187998 19.85095
vt 3.093998 26.83303
vt 7.28 31.11893
vt 5.732284 24.18598
vt -7.28 31.11893
vt -5.732284 24.18598
vt 5.732285 24.18598
vt -5.732282 24.18598
vt 7.280003 31.11893
vt -7.279998 31.11893
vt -7.28 31.11893
vt 7.28 31.11893
vt -5.732284 24.18598
vt 5.732284 24.18598
vt -5.358967 -3.094
vt -5.358967 3.094
vt -1.877312E-06 -6.187999
vt -1.877312E-06 6.188
vt 5.358963 -3.094
vt 5.358963 3.094
vt -7.28 26.70041
vt -6.187999 42.16142
vt 7.28 26.70041
vt 6.188 42.16142
vt -5.732284 18.44527
vt 5.732284 18.44527
vt -2.866142 12.94761
vt 2.866142 12.94761
vt 3.094002 26.83302
vt 6.188002 19.85095
vt -3.093998 26.83302
vt -6.187999 19.85095
vt 2.866142 12.9476
vt -2.866142 12.9476
vt 5.732284 18.44527
vt -5.732284 18.44527
vt 5.732285 24.18598
vt -5.732283 24.18598
vt 7.280001 31.11893
vt -7.279999 31.11893
vt 5.732285 18.44527
vt 2.866144 12.94761
vt -5.732282 18.44527
vt -2.86614 12.94761
vt 5.732285 18.44527
vt 2.866143 12.94761
vt -5.732283 18.44527
vt -2.866141 12.9476
vt -3.094001 26.83303
vt 6.188 19.85095
vt 3.093998 26.83303
vt 7.279999 26.70041
vt -7.280002 26.70041
vt 6.187999 42.16142
vt -6.188002 42.16142
vt 6.187999 19.85095
vt -6.188 19.85095
vt 3.094 26.83303
vt -3.094 26.83303
vt -2.866143 12.94761
vt -5.732285 18.44527
vt 2.866141 12.9476
vt 5.732283 18.44527
vt 7.28 26.70041
vt -7.28 26.70041
vt -6.188 42.16142
vt 5.732282 24.18598
vt -5.732285 24.18598
vt 7.279998 31.11893
vt -7.280003 31.11893
vt 7.280003 26.70041
vt -7.279998 26.70041
vt 6.188001 42.16142
vt -6.187998 42.16142
vt 7.279999 26.70041
vt -7.280002 26.70041
vt 6.187998 42.16142
vt -6.188001 42.16142
vt -3.094 26.83302
vt 3.094 26.83302
vt -6.187999 19.85094
vt 6.188 19.85094
vt 6.188001 19.85095
vt -6.187998 19.85095
vt -3.093999 26.83302
vt -5.732285 18.44527
vt 5.732281 18.44527
vt -2.866144 12.94761
vt 2.86614 12.94761
vt 7.280001 26.70041
vt -7.279999 26.70041
vt 5.732283 24.18598
vt -5.732285 24.18598
vt 7.28 31.11893
vt -7.280001 31.11893
vt 4.964306 2.866142
vt 4.964306 -2.866142
vt 1.877312E-06 5.732284
vt 1.586904 0.9161966
vt 1.877312E-06 1.832398
vt -4.964302 2.866142
vt -1.5869 0.9161966
vt -1.5869 -0.9161966
vt 1.586904 -0.9161966
vt 1.877312E-06 -5.732284
vt 1.877312E-06 -1.832398
vt -4.964302 -2.866142
vt 1.364175 6.152109
vt -1.364172 6.152109
vt 0.9162008 19.57613
vt -0.9161972 19.57613
vt 1.364174 6.15211
vt -1.364174 6.15211
vt 0.9161966 19.57613
vt -0.9161966 19.57613
vt 0.3589758 8.052682
vt -0.3378762 8.052682
vt 0.3589755 8.749532
vt -0.3378732 8.749532
vt 0.3011661 6.143971
vt 0.5432916 4.160633
vt -0.3956821 6.143972
vt -0.6378124 4.160632
vt -1.364173 6.152109
vt 0.5432904 11.94318
vt 1.364172 6.152109
vt 0.9162 19.57613
vt 0.5432907 13.12428
vt -0.6378129 13.12428
vt -0.6378137 11.94318
vt -0.9161979 19.57613
vt -1.364174 6.152109
vt 1.364174 6.152109
vt 1.364172 6.152109
vt -1.364175 6.152109
vt 0.9161972 19.57613
vt -0.9162008 19.57613
vt 0.3011666 12.18531
vt -0.3956816 12.18531
vt 0.3011678 12.88216
vt -0.3956842 12.88216
vt 1.867474 13.25325
vt 3.861437 13.12531
vt 1.935233 12.07409
vt 3.901416 12.42961
vt 0.3011709 -3.083723
vt -0.3956811 -3.083723
vt 0.5432937 -1.100385
vt -0.6378099 -1.100385
vt 4.145549 8.30418
vt 2.179369 7.948667
vt 4.105571 8.999882
vt 2.111609 9.127822
vt -4.142977 8.304033
vt -4.103002 8.999735
vt -2.176798 7.948521
vt -2.109038 9.127675
vt -1.878997 13.25391
vt -1.946755 12.07476
vt -3.872958 13.12597
vt -3.912936 12.43027
vt -0.3378739 -3.588253
vt -0.5800033 -1.604916
vt 0.3589748 -3.588254
vt 0.6011008 -1.604915
vt -1.364172 6.152109
vt 0.6011016 7.810547
vt 1.364173 6.152109
vt 0.9161981 19.57613
vt 0.6011016 8.991648
vt -0.5800024 8.991647
vt -0.5800024 7.810547
vt -0.9161999 19.57613
vt -0.3378798 5.639456
vt 0.3589722 5.639456
vt -0.5800049 3.656118
vt 0.6010992 3.656119
vt 1.865371 -0.4410861
vt 1.044608 -0.4410861
vt 1.364174 5.917662
vt 1.061209 1.150155
vt -1.364174 5.917662
vt -1.061209 1.150155
vt -1.865371 -0.4410861
vt -1.044608 -0.4410861
vt 3.118716 6.682524E-15
vt 2.674432 3.209263
vt 6.845842 6.682524E-15
vt 0.6715315 -5.492106
vt -0.6715358 -5.492106
vt 1.0682 -0.2439937
vt -1.068204 -0.2439937
vt -2.674432 3.209263
vt -3.118716 -1.022708E-14
vt -6.845842 -1.022708E-14
vt -3.141926 -5.698989E-14
vt -8.038051 -5.698989E-14
vt -2.924056 1.576343
vt -1.061209 -2.413666
vt 1.061209 -2.413666
vt -0.6715337 -7.750889
vt 0.6715336 -7.750889
vt -3.141926 -4.047706E-14
vt -8.038051 -4.047706E-14
vt 3.141926 -2.5556E-14
vt 2.924056 1.576343
vt 8.038051 -2.5556E-14
vt 0.6715337 -7.750889
vt -0.6715336 -7.750889
vt -3.118715 1.608104E-14
vt -6.845841 1.608104E-14
vt -2.674431 3.209263
vt 6.845841 -3.156557E-15
vt 3.118715 -3.156557E-15
vt 2.674431 3.209263
vt 3.230916 1.865371
vt 3.230916 1.044608
vt 2.50396 2.28508
vt 3.230916 -1.044608
vt 3.230916 -1.865371
vt 2.503962 -2.285079
vt 0.7269571 -3.311034
vt 2.889013 -6.346982
vt 4.052144 -5.675448
vt 8.112806 -0.6715337
vt 8.112806 0.6715337
vt 0.7269554 3.311035
vt 2.889011 6.346983
vt 4.052142 5.675449
vt 2.567037E-06 -3.730741
vt 2.567037E-06 3.730741
vt -0.7107996 3.32036
vt -0.7107996 -3.32036
vt -3.474835 7.361665
vt -2.520114 2.275753
vt -4.637965 6.690131
vt -2.520114 -2.275753
vt -3.230916 1.865371
vt -3.230916 -1.865371
vt -3.230916 1.025954
vt -3.230916 -1.025954
vt -6.941153 0.6715337
vt -6.941153 -0.6715337
vt -3.474835 -7.361665
vt -4.637965 -6.690131
vt -0.6715336 -5.492106
vt -1.068202 -0.2439937
vt 0.6715337 -5.492106
vt 1.068202 -0.2439937
vt -3.118716 -2.308505E-15
vt -6.845842 -2.308505E-15
vt -2.674432 3.209263
vt 6.845842 -6.201537E-15
vt 3.118716 -6.201537E-15
vt 2.674432 3.209263
vt 1.044608 -0.4410861
vt -1.364174 5.917662
vt -1.865371 -0.4410861
vt -1.025954 -0.4410861
vt -1.068202 2.798508
vt 1.068202 2.798508
vt 1.025954 -0.4410861
vt 1.865371 -0.4410861
vt 1.364174 5.917662
vt -1.044608 -0.4410861
vt 1.865369 -0.4410865
vt 1.025954 -0.4410865
vt 1.364172 5.917662
vt 1.068202 2.798508
vt -1.364172 5.917662
vt -1.865369 -0.4410865
vt -1.025954 -0.4410865
vt 1.865369 -0.4410865
vt 1.025952 -0.4410865
vt 1.364172 5.917662
vt 1.0682 2.798508
vt -1.068204 2.798508
vt -1.364172 5.917662
vt -1.865369 -0.4410865
vt -1.025956 -0.4410865
vt 8.038051 1.409628E-14
vt 3.141926 1.409628E-14
vt -1.068202 -0.2439929
vt 1.068202 -0.2439929
vt -0.6715337 -5.492105
vt 0.6715337 -5.492105
vt -3.141926 3.018567E-14
vt -8.038051 3.018567E-14
vt 8.038051 -1.018905E-13
vt 3.141926 -1.018905E-13
f 3/3/1 2/2/1 1/1/1
f 2/2/1 3/3/1 4/4/1
f 7/7/2 6/6/2 5/5/2
f 6/6/2 7/7/2 8/8/2
f 7/11/3 9/10/3 8/9/3
f 9/10/3 7/11/3 10/12/3
f 13/15/4 12/14/4 11/13/4
f 12/14/4 13/15/4 14/16/4
f 4/19/5 15/18/5 2/17/5
f 15/18/5 4/19/5 16/20/5
f 16/20/5 4/19/5 17/21/5
f 16/20/5 17/21/5 18/22/5
f 12/25/6 19/24/6 11/23/6
f 19/24/6 12/25/6 20/26/6
f 21/29/7 6/28/7 8/27/7
f 6/28/7 21/29/7 22/30/7
f 18/33/8 23/32/8 16/31/8
f 23/32/8 18/33/8 20/34/8
f 14/37/9 25/36/9 24/35/9
f 25/36/9 14/37/9 13/38/9
f 10/41/10 14/40/10 9/39/10
f 14/40/10 10/41/10 12/42/10
f 9/45/11 21/44/11 8/43/11
f 21/44/11 9/45/11 26/46/11
f 14/49/12 26/48/12 9/47/12
f 26/48/12 14/49/12 24/50/12
f 19/52/13 4/51/13 3/1/13
f 4/51/13 19/52/13 17/53/13
f 19/56/14 27/55/14 11/54/14
f 27/55/14 19/56/14 3/57/14
f 2/60/15 28/59/15 1/58/15
f 28/59/15 2/60/15 15/61/15
f 25/64/16 30/63/16 29/62/16
f 30/63/16 25/64/16 13/65/16
f 1/56/17 7/67/17 5/66/17
f 7/67/17 1/56/17 28/68/17
f 27/71/18 6/70/18 30/69/18
f 6/70/18 27/71/18 5/72/18
f 28/75/19 10/74/19 7/73/19
f 10/74/19 28/75/19 23/76/19
f 3/79/20 5/78/20 27/77/20
f 5/78/20 3/79/20 1/80/20
f 19/83/21 18/82/21 17/81/21
f 18/82/21 19/83/21 20/84/21
f 15/31/22 23/86/22 28/85/22
f 23/86/22 15/31/22 16/87/22
f 22/90/23 30/89/23 6/88/23
f 30/89/23 22/90/23 29/91/23
f 23/75/24 12/93/24 10/92/24
f 12/93/24 23/75/24 20/24/24
f 11/96/25 30/95/25 13/94/25
f 30/95/25 11/96/25 27/97/25
f 26/100/26 22/99/26 21/98/26
f 22/99/26 26/100/26 31/101/26
f 31/101/26 26/100/26 32/102/26
f 32/102/26 26/100/26 24/103/26
f 32/102/26 24/103/26 33/104/26
f 33/104/26 24/103/26 34/105/26
f 35/106/26 22/99/26 31/101/26
f 22/99/26 35/106/26 29/107/26
f 29/107/26 35/106/26 36/108/26
f 29/107/26 36/108/26 34/105/26
f 29/107/26 34/105/26 25/109/26
f 25/109/26 34/105/26 24/103/26
f 32/112/27 38/111/27 37/110/27
f 38/111/27 32/112/27 33/113/27
f 35/116/28 40/115/28 39/114/28
f 40/115/28 35/116/28 31/117/28
f 43/120/29 42/119/29 41/118/29
f 42/119/29 43/120/29 44/121/29
f 47/124/30 46/123/30 45/122/30
f 46/123/30 47/124/30 48/125/30
f 40/128/31 46/127/31 37/126/31
f 46/127/31 40/128/31 31/129/31
f 46/127/31 31/129/31 49/130/31
f 49/130/31 31/129/31 50/131/31
f 48/132/31 37/126/31 46/127/31
f 37/126/31 48/132/31 32/133/31
f 32/133/31 48/132/31 50/131/31
f 32/133/31 50/131/31 31/129/31
f 38/135/32 34/117/32 51/134/32
f 34/117/32 38/135/32 33/116/32
f 34/138/33 52/137/33 51/136/33
f 52/137/33 34/138/33 36/139/33
f 53/142/34 47/141/34 45/140/34
f 47/141/34 53/142/34 54/143/34
f 48/146/35 54/145/35 50/144/35
f 54/145/35 48/146/35 47/147/35
f 49/150/36 54/149/36 53/148/36
f 54/149/36 49/150/36 50/151/36
f 44/154/37 55/153/37 42/152/37
f 55/153/37 44/154/37 56/155/37
f 57/158/38 43/157/38 41/156/38
f 43/157/38 57/158/38 58/159/38
f 53/162/39 46/161/39 49/160/39
f 46/161/39 53/162/39 45/163/39
f 43/166/40 56/165/40 44/164/40
f 56/165/40 43/166/40 58/167/40
f 52/170/41 57/169/41 39/168/41
f 57/169/41 52/170/41 36/171/41
f 57/169/41 36/171/41 58/172/41
f 58/172/41 36/171/41 56/173/41
f 55/174/41 39/168/41 57/169/41
f 39/168/41 55/174/41 35/175/41
f 35/175/41 55/174/41 56/173/41
f 35/175/41 56/173/41 36/171/41
f 55/178/42 41/177/42 42/176/42
f 41/177/42 55/178/42 57/179/42
f 39/182/43 60/181/43 59/180/43
f 60/181/43 39/182/43 61/183/43
f 40/184/43 61/183/43 39/182/43
f 61/183/43 40/184/43 62/185/43
f 63/186/43 62/185/43 40/184/43
f 62/185/43 63/186/43 64/187/43
f 67/190/44 66/189/44 65/188/44
f 69/193/45 67/192/45 68/191/45
f 67/192/45 69/193/45 66/194/45
f 68/197/46 70/196/46 69/195/46
f 73/200/47 72/199/47 71/198/47
f 75/203/48 73/202/48 74/201/48
f 73/202/48 75/203/48 72/204/48
f 78/206/49 77/205/49 76/200/49
f 81/209/50 80/208/50 79/207/50
f 80/201/51 78/210/51 76/202/51
f 78/210/51 80/201/51 81/211/51
f 84/214/52 83/213/52 82/212/52
f 87/217/53 86/216/53 85/215/53
f 70/220/26 64/219/26 63/218/26
f 64/219/26 70/220/26 60/221/26
f 60/221/26 70/220/26 59/222/26
f 59/222/26 70/220/26 88/223/26
f 89/224/26 88/223/26 70/220/26
f 90/225/26 88/223/26 89/224/26
f 88/223/26 90/225/26 91/226/26
f 92/227/26 64/219/26 60/221/26
f 64/219/26 92/227/26 93/228/26
f 70/220/26 65/229/26 89/224/26
f 70/220/26 67/230/26 65/229/26
f 67/230/26 70/220/26 68/231/26
f 89/224/26 65/229/26 94/232/26
f 94/232/26 65/229/26 95/233/26
f 94/232/26 95/233/26 77/234/26
f 94/232/26 77/234/26 96/235/26
f 96/235/26 77/234/26 78/236/26
f 96/235/26 78/236/26 79/237/26
f 79/237/26 78/236/26 81/238/26
f 71/239/26 96/235/26 79/237/26
f 97/240/26 71/239/26 79/237/26
f 71/239/26 97/240/26 98/241/26
f 98/241/26 97/240/26 82/242/26
f 98/241/26 82/242/26 86/243/26
f 83/244/26 86/243/26 82/242/26
f 86/243/26 83/244/26 85/245/26
f 96/235/26 71/239/26 75/246/26
f 75/246/26 71/239/26 72/247/26
f 61/202/54 93/203/54 92/210/54
f 93/203/54 61/202/54 62/201/54
f 90/250/55 99/249/55 91/248/55
f 99/249/55 90/250/55 100/251/55
f 100/254/56 90/253/56 89/252/56
f 99/257/57 88/256/57 91/255/57
f 98/180/58 73/183/58 71/258/58
f 73/183/58 98/180/58 51/182/58
f 73/183/58 51/182/58 74/185/58
f 52/259/58 74/185/58 51/182/58
f 94/260/58 74/185/58 52/259/58
f 74/185/58 94/260/58 96/187/58
f 86/261/59 51/184/59 98/186/59
f 51/184/59 86/261/59 87/262/59
f 87/262/59 38/182/59 51/184/59
f 38/182/59 87/262/59 84/263/59
f 84/263/59 97/180/59 38/182/59
f 97/180/59 84/263/59 82/264/59
f 95/265/60 76/183/60 77/181/60
f 76/183/60 95/265/60 37/266/60
f 38/184/60 76/183/60 37/266/60
f 38/184/60 80/185/60 76/183/60
f 97/186/60 80/185/60 38/184/60
f 80/185/60 97/186/60 79/267/60
f 52/270/61 89/269/61 94/268/61
f 89/269/61 52/270/61 100/271/61
f 39/272/61 100/271/61 52/270/61
f 39/272/61 99/262/61 100/271/61
f 59/273/61 99/262/61 39/272/61
f 99/262/61 59/273/61 88/274/61
f 40/277/62 70/276/62 63/275/62
f 70/276/62 40/277/62 69/278/62
f 69/278/62 40/277/62 66/279/62
f 37/280/62 66/279/62 40/277/62
f 95/281/62 66/279/62 37/280/62
f 66/279/62 95/281/62 65/282/62
f 62/208/63 64/284/63 93/283/63
f 85/287/64 84/286/64 87/285/64
f 84/286/64 85/287/64 83/288/64
f 61/200/65 92/290/65 60/289/65
f 74/208/66 96/292/66 75/291/66
