#Produced by Art of Illusion 2.9, Wed Dec 19 11:33:51 CET 2012
s 1
g Helicopter
v -0.5704 3.19766 0.58968
v -0.23797 2.4845 0.85011
v -0.5704 3.19766 1.9259
v -0.23797 2.48018 1.67837
v 0.76582 3.19766 1.9259
v 0.43339 2.48018 1.67837
v 0.76582 3.19766 0.58968
v 0.43339 2.4845 0.85011
v -2.16846 3.48398 3.52396
v 2.36387 3.48398 3.52396
v 2.36387 3.48398 -1.00837
v -2.16846 3.48398 -1.00837
v 0.79362 1.17478 0.82279
v 0.79596 1.12753 1.8337
v -0.60054 1.12753 1.8337
v -0.5982 1.17478 0.82279
v -0.49137 1.0155 3.80509
v 0.68679 1.0155 3.80509
v 0.36271 2.19286 2.82896
v -0.16729 2.19286 2.82896
v 0.39211 2.48855 -0.53474
v 0.68543 1.44429 -0.39489
v -0.4978 1.44429 -0.39489
v -0.21423 2.48855 -0.53474
v 0.26327 2.6064 -2.87793
v -0.23762 2.65143 -2.99434
v -0.14307 3.15516 -3.08042
v 0.18256 3.15264 -3.02946
v -0.2089 2.77932 -3.57781
v -0.13752 3.20007 -3.65018
v 0.14558 3.22495 -3.66398
v 0.16023 2.81033 -3.5468
v -0.52789 3.14827 -3.20885
v -0.52789 3.14827 -3.61807
v -0.53914 2.73905 -3.61807
v -0.53914 2.73905 -3.20885
v -0.66232 3.54087 -4.01067
v -0.66232 2.34645 -4.01067
v -0.66232 2.34645 -2.81625
v -0.66232 3.54087 -2.81625
v 0.64671 0.44113 1.8291
v 0.64858 0.50143 3.63698
v -0.45317 0.50143 3.63698
v -0.45129 0.44113 1.8291
v -0.44895 0.49513 0.84379
v -0.43676 0.87943 -0.01646
v 0.63218 0.87943 -0.01646
v 0.64437 0.49513 0.84379
v 1.11096 0.86323 1.81813
v 1.06471 0.81633 3.33996
v 1.01804 0.54833 3.26296
v 1.03596 0.50143 1.79957
v 1.01955 0.55543 0.87267
v 0.93054 0.88433 0.23146
v 0.97721 1.15233 0.16612
v 1.09455 0.91723 0.85692
v -0.89913 0.91723 0.85692
v -0.78179 1.15233 0.16612
v -0.73512 0.88433 0.23146
v -0.82413 0.55543 0.87267
v -0.84054 0.50143 1.79957
v -0.82262 0.54833 3.26296
v -0.86929 0.81633 3.33996
v -0.91554 0.86323 1.81813
v 0.07482 3.81389 -3.71893
v 0.07482 3.81389 -3.9856
v -0.01969 3.81389 -3.9856
v -0.01969 3.81389 -3.71893
v -0.10881 2.90057 1.05127
v -0.29888 2.43779 1.25779
v -0.10881 2.90057 1.46431
v 0.09771 2.64179 1.76688
v 0.30423 2.90057 1.46431
v 0.4943 2.43779 1.25779
v 0.30423 2.90057 1.05127
v 0.09771 2.64179 0.7487
v -0.7931 3.19766 1.25779
v 0.09771 3.19766 2.1486
v 0.98852 3.19766 1.25779
v 0.09771 3.19766 0.36698
v -2.12261 3.39885 3.47811
v -3.52095 3.51377 1.25779
v 2.31803 3.39885 3.47811
v 0.09771 3.51377 4.87645
v 2.31803 3.39885 -0.96253
v 3.71637 3.51377 1.25779
v -2.12261 3.39885 -0.96253
v 0.09771 3.51377 -2.36087
v 0.63471 1.76653 0.81754
v 0.09771 0.49513 0.83854
v 0.63471 1.73953 1.77867
v 0.79596 1.12753 1.25779
v -0.43929 1.73953 1.77867
v 0.09771 0.44113 1.83454
v -0.43929 1.76653 0.81754
v -0.60054 1.12753 1.25779
v -0.60054 1.12753 2.78742
v -0.30504 1.73953 3.25917
v 0.79596 1.12753 2.78742
v 0.09771 1.06723 3.94879
v 0.42546 2.35153 2.32542
v 0.50046 1.73953 3.25917
v -0.23004 2.35153 2.32542
v 0.09771 2.35153 2.85604
v 0.42546 2.37853 0.27079
v 0.08894 2.63405 -0.53474
v 0.78658 1.31653 0.29179
v 0.58567 2.05205 -0.53474
v -0.59117 1.31653 0.29179
v 0.08894 1.46375 -0.66374
v -0.23004 2.37853 0.27079
v -0.40778 2.05205 -0.53474
v 0.39706 2.1346 -1.75134
v 0.29141 2.82015 -2.87793
v -0.27179 2.1346 -1.75134
v 0.03633 2.53515 -2.87793
v -0.16679 2.7646 -1.75134
v -0.26598 2.82015 -2.8388
v 0.29206 2.7646 -1.75134
v 0.03633 3.20643 -2.88845
v -0.21827 2.72454 -3.41346
v 0.02757 2.76366 -3.59346
v -0.16952 3.26408 -3.48398
v -0.18077 2.94366 -3.63259
v 0.18491 3.22495 -3.48398
v 0.02757 3.22495 -3.72398
v 0.21867 2.76366 -3.41346
v 0.18867 2.94366 -3.59346
v -0.35368 3.06105 -3.29608
v -0.53351 2.94366 -3.14065
v -0.35368 3.06105 -3.53085
v -0.52601 3.21648 -3.41346
v -0.39868 2.82628 -3.53085
v -0.53351 2.94366 -3.68628
v -0.39868 2.82628 -3.29608
v -0.54101 2.67085 -3.41346
v -0.62761 3.53519 -4.00499
v -0.67447 3.89303 -3.41346
v -0.62761 2.35214 -4.00499
v -0.67447 2.94366 -4.36283
v -0.62761 2.35214 -2.82194
v -0.67447 1.99429 -3.41346
v -0.62761 3.53519 -2.82194
v -0.67447 2.94366 -2.46409
v 1.11471 0.68233 1.80342
v 0.64671 0.44113 1.25779
v 0.65421 0.68233 3.99229
v 0.64671 0.44113 2.76904
v -0.45879 0.68233 3.99229
v 0.09771 0.50143 3.67504
v -0.91929 0.68233 1.80342
v -0.45129 0.44113 2.76904
v -0.90054 0.73633 0.87004
v -0.45129 0.44113 1.25779
v -0.44004 1.11433 -0.20321
v -0.44192 0.65713 0.37579
v 0.63546 1.11433 -0.20321
v 0.09771 0.87943 -0.05321
v 1.09596 0.73633 0.87004
v 0.63733 0.65713 0.37579
v 0.97971 0.92353 1.83754
v 1.11096 0.86323 1.25779
v 0.97221 0.86323 3.64654
v 1.11096 0.86323 2.72517
v 0.92721 0.50143 3.52279
v 1.07346 0.68233 3.47592
v 0.91971 0.44113 1.81279
v 1.03596 0.50143 2.65092
v 0.91033 0.49513 0.85954
v 1.03596 0.50143 1.25779
v 0.86158 0.87943 0.09379
v 0.97033 0.71743 0.49129
v 0.90658 1.24123 -0.01121
v 0.96096 1.06033 0.14629
v 0.97033 0.97753 0.83854
v 1.04533 1.07923 0.42829
v -0.77492 0.97753 0.83854
v -0.91554 0.86323 1.25779
v -0.71117 1.24123 -0.01121
v -0.84992 1.07923 0.42829
v -0.66617 0.87943 0.09379
v -0.76554 1.06033 0.14629
v -0.71492 0.49513 0.85954
v -0.77492 0.71743 0.49129
v -0.72429 0.44113 1.81279
v -0.84054 0.50143 1.25779
v -0.73179 0.50143 3.52279
v -0.84054 0.50143 2.65092
v -0.77679 0.86323 3.64654
v -0.87804 0.68233 3.47592
v -0.78429 0.92353 1.83754
v -0.91554 0.86323 2.72517
v 0.1063 3.58881 -3.51555
v 0.02757 3.89267 -3.72712
v 0.1063 3.58881 -3.87555
v 0.0814 3.89267 -3.90712
v -0.05117 3.58881 -3.87555
v 0.02757 3.89267 -4.08712
v -0.05117 3.58881 -3.51555
v -0.02626 3.89267 -3.90712
v -0.17766 2.90057 1.25779
v 0.09771 2.90057 1.53316
v 0.37307 2.90057 1.25779
v 0.09771 2.90057 0.98243
v 0.09771 0.44113 1.25779
v 0.09771 3.55208 1.25779
v -2.86271 3.39885 1.25779
v 0.09771 3.39885 4.21821
v 3.05813 3.39885 1.25779
v 0.09771 3.39885 -1.70263
v 0.02757 2.94366 -3.65346
v 0.63471 1.73953 1.25779
v 0.09771 1.73953 3.48979
v -0.43929 1.73953 1.25779
v -0.43929 1.73953 2.56729
v 0.09771 0.44113 2.79079
v 0.63471 1.73953 2.56729
v 0.09771 2.55553 2.24479
v 0.09771 2.55553 0.27079
v 0.63471 1.84753 0.27079
v 0.09771 0.65713 0.35479
v -0.43929 1.84753 0.27079
v 0.43854 2.4496 -1.75134
v 0.06264 2.0296 -1.75134
v -0.31326 2.4496 -1.75134
v 0.06264 2.8696 -1.75134
v 0.02757 2.70366 -3.41346
v -0.69009 2.94366 -3.41346
v 0.02757 3.99396 -3.97764
v 0.24237 2.94366 -3.41346
v -0.37618 2.94366 -3.25695
v -0.34618 3.10017 -3.41346
v -0.37618 2.94366 -3.56997
v -0.40618 2.78715 -3.41346
v -0.62761 3.73237 -3.41346
v -0.62761 2.94366 -4.20217
v -0.62761 2.15496 -3.41346
v -0.62761 2.94366 -2.62476
v 1.11471 0.68233 1.25779
v 1.11471 0.68233 2.66629
v 0.09771 0.68233 4.03579
v -0.91929 0.68233 2.66629
v -0.91929 0.68233 1.25779
v -0.84429 0.89833 0.48079
v 0.09771 1.11433 -0.24521
v 1.03971 0.89833 0.48079
v 0.97971 0.92353 1.25779
v 0.97971 0.92353 2.80279
v 0.94971 0.68233 3.86179
v 0.91971 0.44113 2.70379
v 0.91971 0.44113 1.25779
v 0.88221 0.65713 0.43879
v 0.87471 1.11433 -0.07721
v 0.94221 1.13953 0.35479
v -0.78429 0.92353 1.25779
v -0.74679 1.13953 0.35479
v -0.67929 1.11433 -0.07721
v -0.68679 0.65713 0.43879
v -0.72429 0.44113 1.25779
v -0.72429 0.44113 2.70379
v -0.75429 0.68233 3.86179
v -0.78429 0.92353 2.80279
v 0.02757 3.58881 -3.45555
v 0.13255 3.58881 -3.69555
v 0.02757 3.58881 -3.93555
v -0.07742 3.58881 -3.69555
f 201 77 1 69
f 201 69 2 70
f 201 70 4 71
f 201 71 3 77
f 202 78 3 71
f 202 71 4 72
f 202 72 6 73
f 202 73 5 78
f 203 79 5 73
f 203 73 6 74
f 203 74 8 75
f 203 75 7 79
f 204 80 7 75
f 204 75 8 76
f 204 76 2 69
f 204 69 1 80
f 205 154 45 90
f 205 90 48 146
f 205 146 41 94
f 205 94 44 154
f 206 88 12 82
f 206 82 9 84
f 206 84 10 86
f 206 86 11 88
f 207 77 3 81
f 207 81 9 82
f 207 82 12 87
f 207 87 1 77
f 208 78 5 83
f 208 83 10 84
f 208 84 9 81
f 208 81 3 78
f 209 79 7 85
f 209 85 11 86
f 209 86 10 83
f 209 83 5 79
f 210 80 1 87
f 210 87 12 88
f 210 88 11 85
f 210 85 7 80
f 211 128 32 122
f 211 122 29 124
f 211 124 30 126
f 211 126 31 128
f 212 74 6 91
f 212 91 14 92
f 212 92 13 89
f 212 89 8 74
f 213 104 20 98
f 213 98 17 100
f 213 100 18 102
f 213 102 19 104
f 214 70 2 95
f 214 95 16 96
f 214 96 15 93
f 214 93 4 70
f 215 93 15 97
f 215 97 17 98
f 215 98 20 103
f 215 103 4 93
f 216 152 44 94
f 216 94 41 148
f 216 148 42 150
f 216 150 43 152
f 217 91 6 101
f 217 101 19 102
f 217 102 18 99
f 217 99 14 91
f 218 72 4 103
f 218 103 20 104
f 218 104 19 101
f 218 101 6 72
f 219 76 8 105
f 219 105 21 106
f 219 106 24 111
f 219 111 2 76
f 220 89 13 107
f 220 107 22 108
f 220 108 21 105
f 220 105 8 89
f 221 160 48 90
f 221 90 45 156
f 221 156 46 158
f 221 158 47 160
f 222 95 2 111
f 222 111 24 112
f 222 112 23 109
f 222 109 16 95
f 223 108 22 113
f 223 113 25 114
f 223 114 28 119
f 223 119 21 108
f 224 110 23 115
f 224 115 26 116
f 224 116 25 113
f 224 113 22 110
f 225 112 24 117
f 225 117 27 118
f 225 118 26 115
f 225 115 23 112
f 226 106 21 119
f 226 119 28 120
f 226 120 27 117
f 226 117 24 106
f 227 116 26 121
f 227 121 29 122
f 227 122 32 127
f 227 127 25 116
f 228 144 40 138
f 228 138 37 140
f 228 140 38 142
f 228 142 39 144
f 229 200 68 194
f 229 194 65 196
f 229 196 66 198
f 229 198 67 200
f 230 114 25 127
f 230 127 32 128
f 230 128 31 125
f 230 125 28 114
f 231 118 27 129
f 231 129 33 130
f 231 130 36 135
f 231 135 26 118
f 232 123 30 131
f 232 131 34 132
f 232 132 33 129
f 232 129 27 123
f 233 124 29 133
f 233 133 35 134
f 233 134 34 131
f 233 131 30 124
f 234 121 26 135
f 234 135 36 136
f 234 136 35 133
f 234 133 29 121
f 235 132 34 137
f 235 137 37 138
f 235 138 40 143
f 235 143 33 132
f 236 134 35 139
f 236 139 38 140
f 236 140 37 137
f 236 137 34 134
f 237 136 36 141
f 237 141 39 142
f 237 142 38 139
f 237 139 35 136
f 238 130 33 143
f 238 143 40 144
f 238 144 39 141
f 238 141 36 130
f 239 170 53 159
f 239 159 56 162
f 239 162 49 145
f 239 145 52 170
f 240 168 52 145
f 240 145 49 164
f 240 164 50 166
f 240 166 51 168
f 241 100 17 149
f 241 149 43 150
f 241 150 42 147
f 241 147 18 100
f 242 192 64 151
f 242 151 61 188
f 242 188 62 190
f 242 190 63 192
f 243 186 61 151
f 243 151 64 178
f 243 178 57 153
f 243 153 60 186
f 244 184 60 153
f 244 153 57 180
f 244 180 58 182
f 244 182 59 184
f 245 110 22 157
f 245 157 47 158
f 245 158 46 155
f 245 155 23 110
f 246 176 56 159
f 246 159 53 172
f 246 172 54 174
f 246 174 55 176
f 247 92 14 161
f 247 161 49 162
f 247 162 56 175
f 247 175 13 92
f 248 99 18 163
f 248 163 50 164
f 248 164 49 161
f 248 161 14 99
f 249 147 42 165
f 249 165 51 166
f 249 166 50 163
f 249 163 18 147
f 250 148 41 167
f 250 167 52 168
f 250 168 51 165
f 250 165 42 148
f 251 146 48 169
f 251 169 53 170
f 251 170 52 167
f 251 167 41 146
f 252 160 47 171
f 252 171 54 172
f 252 172 53 169
f 252 169 48 160
f 253 157 22 173
f 253 173 55 174
f 253 174 54 171
f 253 171 47 157
f 254 107 13 175
f 254 175 56 176
f 254 176 55 173
f 254 173 22 107
f 255 96 16 177
f 255 177 57 178
f 255 178 64 191
f 255 191 15 96
f 256 109 23 179
f 256 179 58 180
f 256 180 57 177
f 256 177 16 109
f 257 155 46 181
f 257 181 59 182
f 257 182 58 179
f 257 179 23 155
f 258 156 45 183
f 258 183 60 184
f 258 184 59 181
f 258 181 46 156
f 259 154 44 185
f 259 185 61 186
f 259 186 60 183
f 259 183 45 154
f 260 152 43 187
f 260 187 62 188
f 260 188 61 185
f 260 185 44 152
f 261 149 17 189
f 261 189 63 190
f 261 190 62 187
f 261 187 43 149
f 262 97 15 191
f 262 191 64 192
f 262 192 63 189
f 262 189 17 97
f 263 120 28 193
f 263 193 65 194
f 263 194 68 199
f 263 199 27 120
f 264 125 31 195
f 264 195 66 196
f 264 196 65 193
f 264 193 28 125
f 265 126 30 197
f 265 197 67 198
f 265 198 66 195
f 265 195 31 126
f 266 123 27 199
f 266 199 68 200
f 266 200 67 197
f 266 197 30 123
