# STREAM IMAGING offline target
o light_aircraft
v 0.0000 0.5500 1.2500
v 9.5000 0.5500 1.2500
v 9.5000 1.4500 1.2500
v 0.0000 1.4500 1.2500
v 0.0000 0.5500 2.0500
v 9.5000 0.5500 2.0500
v 9.5000 1.4500 2.0500
v 0.0000 1.4500 2.0500
v 2.4000 0.7200 -2.8000
v 5.7000 0.7200 -2.8000
v 5.7000 1.0500 -2.8000
v 2.4000 1.0500 -2.8000
v 2.4000 0.7200 6.1000
v 5.7000 0.7200 6.1000
v 5.7000 1.0500 6.1000
v 2.4000 1.0500 6.1000
v 7.5000 0.9000 0.1500
v 9.1000 0.9000 0.1500
v 9.1000 1.1500 0.1500
v 7.5000 1.1500 0.1500
v 7.5000 0.9000 3.1500
v 9.1000 0.9000 3.1500
v 9.1000 1.1500 3.1500
v 7.5000 1.1500 3.1500
v 7.9000 1.3500 1.4800
v 9.2500 1.3500 1.4800
v 9.2500 3.2500 1.4800
v 7.9000 3.2500 1.4800
v 7.9000 1.3500 1.8200
v 9.2500 1.3500 1.8200
v 9.2500 3.2500 1.8200
v 7.9000 3.2500 1.8200
v 1.1500 1.3500 1.3600
v 3.1500 1.3500 1.3600
v 3.1500 2.2000 1.3600
v 1.1500 2.2000 1.3600
v 1.1500 1.3500 1.9400
v 3.1500 1.3500 1.9400
v 3.1500 2.2000 1.9400
v 1.1500 2.2000 1.9400
f 1 2 3 4
f 5 8 7 6
f 1 5 6 2
f 4 3 7 8
f 1 4 8 5
f 2 6 7 3
f 9 10 11 12
f 13 16 15 14
f 9 13 14 10
f 12 11 15 16
f 9 12 16 13
f 10 14 15 11
f 17 18 19 20
f 21 24 23 22
f 17 21 22 18
f 20 19 23 24
f 17 20 24 21
f 18 22 23 19
f 25 26 27 28
f 29 32 31 30
f 25 29 30 26
f 28 27 31 32
f 25 28 32 29
f 26 30 31 27
f 33 34 35 36
f 37 40 39 38
f 33 37 38 34
f 36 35 39 40
f 33 36 40 37
f 34 38 39 35
