# StreamSim procedural low-poly maize, Y-up, metres
o maize_stem
v -0.03 0.00 -0.03
v  0.03 0.00 -0.03
v  0.03 2.40 -0.03
v -0.03 2.40 -0.03
v -0.03 0.00  0.03
v  0.03 0.00  0.03
v  0.03 2.40  0.03
v -0.03 2.40  0.03
f 1 2 3
f 1 3 4
f 5 8 7
f 5 7 6
f 1 5 6
f 1 6 2
f 4 3 7
f 4 7 8
f 1 4 8
f 1 8 5
f 2 6 7
f 2 7 3
o maize_leaves
v -0.02 0.45 -0.02
v -0.72 0.78  0.00
v  0.02 0.54  0.03
v  0.02 0.70  0.02
v  0.64 1.04  0.00
v -0.02 0.79 -0.03
v -0.02 0.96  0.02
v  0.00 1.30  0.68
v  0.03 1.05 -0.02
v  0.02 1.20 -0.02
v  0.00 1.53 -0.62
v -0.03 1.29  0.02
v -0.02 1.43 -0.02
v -0.58 1.73  0.00
v  0.02 1.51  0.03
v  0.02 1.68  0.02
v  0.54 1.94  0.00
v -0.02 1.76 -0.03
v -0.02 1.89  0.02
v  0.00 2.15  0.48
v  0.03 1.97 -0.02
v  0.02 2.08 -0.02
v  0.00 2.30 -0.40
v -0.03 2.15  0.02
f 9 10 11
f 12 13 14
f 15 16 17
f 18 19 20
f 21 22 23
f 24 25 26
f 27 28 29
f 30 31 32
o maize_tassel
v 0.00 2.34 0.00
v -0.22 2.55 0.00
v  0.22 2.55 0.00
v 0.00 2.55 -0.22
v 0.00 2.55  0.22
f 33 34 35
f 33 36 37
f 33 35 36
f 33 37 34
