# StreamSim procedural low-poly rice clump, Y-up, metres
o rice_stems
v -0.10 0.00 -0.02
v -0.07 0.00 -0.02
v -0.07 0.82 -0.02
v -0.10 0.82 -0.02
v -0.10 0.00  0.02
v -0.07 0.00  0.02
v -0.07 0.82  0.02
v -0.10 0.82  0.02
v  0.07 0.00 -0.02
v  0.10 0.00 -0.02
v  0.10 0.90 -0.02
v  0.07 0.90 -0.02
v  0.07 0.00  0.02
v  0.10 0.00  0.02
v  0.10 0.90  0.02
v  0.07 0.90  0.02
f 1 2 3
f 1 3 4
f 5 8 7
f 5 7 6
f 1 5 6
f 1 6 2
f 4 3 7
f 4 7 8
f 1 4 8
f 1 8 5
f 2 6 7
f 2 7 3
f 9 10 11
f 9 11 12
f 13 16 15
f 13 15 14
f 9 13 14
f 9 14 10
f 12 11 15
f 12 15 16
f 9 12 16
f 9 16 13
f 10 14 15
f 10 15 11
o rice_leaves
v -0.09 0.12  0.00
v -0.42 0.66  0.08
v -0.05 0.25  0.03
v  0.08 0.15  0.00
v  0.43 0.72 -0.04
v  0.05 0.27 -0.02
v -0.04 0.20  0.02
v  0.02 0.84  0.40
v  0.04 0.31  0.04
v  0.04 0.24 -0.02
v -0.02 0.90 -0.38
v -0.04 0.35 -0.04
v -0.07 0.38  0.00
v -0.30 0.94  0.14
v -0.02 0.47  0.03
v  0.07 0.42  0.00
v  0.32 1.00 -0.10
v  0.02 0.51 -0.03
f 17 18 19
f 20 21 22
f 23 24 25
f 26 27 28
f 29 30 31
f 32 33 34
