# StreamSim procedural low-poly sunflower, Y-up, metres
o sunflower_stem
v -0.025 0.00 -0.025
v  0.025 0.00 -0.025
v  0.025 1.62 -0.025
v -0.025 1.62 -0.025
v -0.025 0.00  0.025
v  0.025 0.00  0.025
v  0.025 1.62  0.025
v -0.025 1.62  0.025
f 1 2 3
f 1 3 4
f 5 8 7
f 5 7 6
f 1 5 6
f 1 6 2
f 4 3 7
f 4 7 8
f 1 4 8
f 1 8 5
f 2 6 7
f 2 7 3
o sunflower_leaves
v -0.02 0.48 0.00
v -0.52 0.82 0.04
v  0.02 0.58 0.05
v  0.02 0.72 0.00
v  0.50 1.02 -0.03
v -0.02 0.82 -0.05
v -0.02 0.98 0.00
v  0.00 1.26 0.45
v  0.03 1.07 0.03
v  0.02 1.18 0.00
v  0.00 1.42 -0.38
v -0.03 1.26 -0.03
f 9 10 11
f 12 13 14
f 15 16 17
f 18 19 20
o sunflower_head
v 0.000 1.68 -0.035
v 0.260 1.68 -0.035
v 0.184 1.864 -0.035
v 0.000 1.94 -0.035
v -0.184 1.864 -0.035
v -0.260 1.68 -0.035
v -0.184 1.496 -0.035
v 0.000 1.42 -0.035
v 0.184 1.496 -0.035
v 0.000 1.68 0.035
v 0.260 1.68 0.035
v 0.184 1.864 0.035
v 0.000 1.94 0.035
v -0.184 1.864 0.035
v -0.260 1.68 0.035
v -0.184 1.496 0.035
v 0.000 1.42 0.035
v 0.184 1.496 0.035
f 21 22 23
f 21 23 24
f 21 24 25
f 21 25 26
f 21 26 27
f 21 27 28
f 21 28 29
f 21 29 22
f 30 32 31
f 30 33 32
f 30 34 33
f 30 35 34
f 30 36 35
f 30 37 36
f 30 38 37
f 30 31 38
o sunflower_petals
v  0.42 1.68 0.00
v  0.30 1.98 0.00
v  0.00 2.10 0.00
v -0.30 1.98 0.00
v -0.42 1.68 0.00
v -0.30 1.38 0.00
v  0.00 1.26 0.00
v  0.30 1.38 0.00
f 22 39 23
f 23 40 24
f 24 41 25
f 25 42 26
f 26 43 27
f 27 44 28
f 28 45 29
f 29 46 22
