# StreamSim procedural low-poly wheat, Y-up, metres
o wheat_stem
v -0.012 0.00 -0.012
v  0.012 0.00 -0.012
v  0.012 0.92 -0.012
v -0.012 0.92 -0.012
v -0.012 0.00  0.012
v  0.012 0.00  0.012
v  0.012 0.92  0.012
v -0.012 0.92  0.012
f 1 2 3
f 1 3 4
f 5 8 7
f 5 7 6
f 1 5 6
f 1 6 2
f 4 3 7
f 4 7 8
f 1 4 8
f 1 8 5
f 2 6 7
f 2 7 3
o wheat_leaves
v -0.01 0.18 0.00
v -0.42 0.43 0.01
v  0.01 0.26 0.02
v  0.00 0.32 -0.01
v  0.36 0.58 0.00
v  0.01 0.40 0.02
v -0.01 0.51 0.00
v  0.00 0.74 0.32
v  0.02 0.59 0.01
v  0.00 0.64 -0.01
v  0.00 0.82 -0.28
v -0.02 0.70 0.01
f 9 10 11
f 12 13 14
f 15 16 17
f 18 19 20
o wheat_head
v -0.045 0.88 -0.035
v  0.045 0.88 -0.035
v  0.045 1.14 -0.035
v -0.045 1.14 -0.035
v -0.045 0.88  0.035
v  0.045 0.88  0.035
v  0.045 1.14  0.035
v -0.045 1.14  0.035
f 21 22 23
f 21 23 24
f 25 28 27
f 25 27 26
f 21 25 26
f 21 26 22
f 24 23 27
f 24 27 28
f 21 24 28
f 21 28 25
f 22 26 27
f 22 27 23
