# StreamSim low-poly vertical bifacial PV fence
# Y-up; front and rear both participate through bifacial material parameters
o solar_panel_vertical_bifacial
g pv_bifacial_modules
v -0.03 0.45 -3.60
v 0.03 0.45 -3.60
v 0.03 2.65 -3.60
v -0.03 2.65 -3.60
v -0.03 0.45 3.60
v 0.03 0.45 3.60
v 0.03 2.65 3.60
v -0.03 2.65 3.60
f 1 4 3 2
f 5 6 7 8
f 1 2 6 5
f 2 3 7 6
f 3 4 8 7
f 4 1 5 8
g pv_supports
v -0.60 0 -2.925
v 0.60 0 -2.925
v 0.60 0.15 -2.925
v -0.60 0.15 -2.925
v -0.60 0 -2.675
v 0.60 0 -2.675
v 0.60 0.15 -2.675
v -0.60 0.15 -2.675
f 9 10 11 12
f 13 16 15 14
f 9 13 14 10
f 10 14 15 11
f 11 15 16 12
f 12 16 13 9
v -0.60 0 -0.125
v 0.60 0 -0.125
v 0.60 0.15 -0.125
v -0.60 0.15 -0.125
v -0.60 0 0.125
v 0.60 0 0.125
v 0.60 0.15 0.125
v -0.60 0.15 0.125
f 17 18 19 20
f 21 24 23 22
f 17 21 22 18
f 18 22 23 19
f 19 23 24 20
f 20 24 21 17
v -0.60 0 2.675
v 0.60 0 2.675
v 0.60 0.15 2.675
v -0.60 0.15 2.675
v -0.60 0 2.925
v 0.60 0 2.925
v 0.60 0.15 2.925
v -0.60 0.15 2.925
f 25 26 27 28
f 29 32 31 30
f 25 29 30 26
f 26 30 31 27
f 27 31 32 28
f 28 32 29 25
