# StreamSim low-profile 2 x 3 rooftop PV array
# Y-up; nearly horizontal monocrystalline modules
o solar_panel_rooftop_array
g pv_modules
v -1.80 0.12 -3.45
v 1.80 0.12 -3.45
v 1.80 0.12 3.45
v -1.80 0.12 3.45
v -1.80 0.22 -3.45
v 1.80 0.22 -3.45
v 1.80 0.22 3.45
v -1.80 0.22 3.45
f 5 8 7 6
f 1 2 3 4
f 1 5 6 2
f 2 6 7 3
f 3 7 8 4
f 4 8 5 1
g mounting_rails
v -1.50 0 -3.45
v -1.30 0 -3.45
v -1.30 0.12 -3.45
v -1.50 0.12 -3.45
v -1.50 0 3.45
v -1.30 0 3.45
v -1.30 0.12 3.45
v -1.50 0.12 3.45
f 9 10 11 12
f 13 16 15 14
f 9 13 14 10
f 10 14 15 11
f 11 15 16 12
f 12 16 13 9
v 1.30 0 -3.45
v 1.50 0 -3.45
v 1.50 0.12 -3.45
v 1.30 0.12 -3.45
v 1.30 0 3.45
v 1.50 0 3.45
v 1.50 0.12 3.45
v 1.30 0.12 3.45
f 17 18 19 20
f 21 24 23 22
f 17 21 22 18
f 18 22 23 19
f 19 23 24 20
f 20 24 21 17
