# STREAM IMAGING offline target
o patrol_boat
v 0.0000 0.1500 0.5500
v 11.5000 0.1500 0.5500
v 11.5000 1.0500 0.5500
v 0.0000 1.0500 0.5500
v 0.0000 0.1500 3.4500
v 11.5000 0.1500 3.4500
v 11.5000 1.0500 3.4500
v 0.0000 1.0500 3.4500
v 2.9000 1.0500 1.0000
v 8.1000 1.0500 1.0000
v 8.1000 2.1000 1.0000
v 2.9000 2.1000 1.0000
v 2.9000 1.0500 3.0000
v 8.1000 1.0500 3.0000
v 8.1000 2.1000 3.0000
v 2.9000 2.1000 3.0000
v 4.2000 2.1000 1.2500
v 7.2000 2.1000 1.2500
v 7.2000 3.1000 1.2500
v 4.2000 3.1000 1.2500
v 4.2000 2.1000 2.7500
v 7.2000 2.1000 2.7500
v 7.2000 3.1000 2.7500
v 4.2000 3.1000 2.7500
v 5.5500 3.1000 1.9000
v 5.7500 3.1000 1.9000
v 5.7500 5.5000 1.9000
v 5.5500 5.5000 1.9000
v 5.5500 3.1000 2.1000
v 5.7500 3.1000 2.1000
v 5.7500 5.5000 2.1000
v 5.5500 5.5000 2.1000
f 1 2 3 4
f 5 8 7 6
f 1 5 6 2
f 4 3 7 8
f 1 4 8 5
f 2 6 7 3
f 9 10 11 12
f 13 16 15 14
f 9 13 14 10
f 12 11 15 16
f 9 12 16 13
f 10 14 15 11
f 17 18 19 20
f 21 24 23 22
f 17 21 22 18
f 20 19 23 24
f 17 20 24 21
f 18 22 23 19
f 25 26 27 28
f 29 32 31 30
f 25 29 30 26
f 28 27 31 32
f 25 28 32 29
f 26 30 31 27
