# STREAM IMAGING offline target
o main_battle_tank
v 0.0000 0.3500 0.0000
v 7.6000 0.3500 0.0000
v 7.6000 1.5500 0.0000
v 0.0000 1.5500 0.0000
v 0.0000 0.3500 3.6000
v 7.6000 0.3500 3.6000
v 7.6000 1.5500 3.6000
v 0.0000 1.5500 3.6000
v 1.6500 1.5500 0.6500
v 5.7500 1.5500 0.6500
v 5.7500 2.3500 0.6500
v 1.6500 2.3500 0.6500
v 1.6500 1.5500 2.9500
v 5.7500 1.5500 2.9500
v 5.7500 2.3500 2.9500
v 1.6500 2.3500 2.9500
v 2.4500 2.3500 1.0000
v 5.1000 2.3500 1.0000
v 5.1000 2.9000 1.0000
v 2.4500 2.9000 1.0000
v 2.4500 2.3500 2.6000
v 5.1000 2.3500 2.6000
v 5.1000 2.9000 2.6000
v 2.4500 2.9000 2.6000
v 4.6500 2.4800 1.5200
v 9.2000 2.4800 1.5200
v 9.2000 2.7000 1.5200
v 4.6500 2.7000 1.5200
v 4.6500 2.4800 2.0800
v 9.2000 2.4800 2.0800
v 9.2000 2.7000 2.0800
v 4.6500 2.7000 2.0800
v -0.2000 0.0000 -0.1200
v 7.3000 0.0000 -0.1200
v 7.3000 0.7200 -0.1200
v -0.2000 0.7200 -0.1200
v -0.2000 0.0000 0.4500
v 7.3000 0.0000 0.4500
v 7.3000 0.7200 0.4500
v -0.2000 0.7200 0.4500
v -0.2000 0.0000 3.1500
v 7.3000 0.0000 3.1500
v 7.3000 0.7200 3.1500
v -0.2000 0.7200 3.1500
v -0.2000 0.0000 3.7200
v 7.3000 0.0000 3.7200
v 7.3000 0.7200 3.7200
v -0.2000 0.7200 3.7200
f 1 2 3 4
f 5 8 7 6
f 1 5 6 2
f 4 3 7 8
f 1 4 8 5
f 2 6 7 3
f 9 10 11 12
f 13 16 15 14
f 9 13 14 10
f 12 11 15 16
f 9 12 16 13
f 10 14 15 11
f 17 18 19 20
f 21 24 23 22
f 17 21 22 18
f 20 19 23 24
f 17 20 24 21
f 18 22 23 19
f 25 26 27 28
f 29 32 31 30
f 25 29 30 26
f 28 27 31 32
f 25 28 32 29
f 26 30 31 27
f 33 34 35 36
f 37 40 39 38
f 33 37 38 34
f 36 35 39 40
f 33 36 40 37
f 34 38 39 35
f 41 42 43 44
f 45 48 47 46
f 41 45 46 42
f 44 43 47 48
f 41 44 48 45
f 42 46 47 43
